<?xml version="1.0" standalone="no"?>
<!DOCTYPE svg PUBLIC "-//W3C//DTD SVG 1.1//EN"
         "http://www.w3.org/Graphics/SVG/1.1/DTD/svg11.dtd">
<svg width="292" height="288"
     viewBox="172 144 292 288"
     version="1.1"
     xmlns="http://www.w3.org/2000/svg"
     xmlns:xlink="http://www.w3.org/1999/xlink">
   <defs>
   </defs>
   <path  d="M 245.75686938404488 206.59375 C 243.88186938404488 195.78125 243.44436938404488 192.34375 243.44436938404488 187.40625 C 243.44436938404488 170.46875 251.00686938404488 162.78125 267.6318693840449 162.78125 L 267.6318693840449 161.84375 L 254.88186938404488 208.90625 C 251.25686938404488 212.03125 250.38186938404488 212.78125 242.88186938404488 220.28125 C 249.69436938404488 224.84375 249.94436938404488 225.09375 250.50686938404488 226.65625 C 248.94436938404488 231.40625 248.94436938404488 231.40625 245.38186938404488 244.96875 C 238.63186938404488 269.28125 238.31936938404488 270.09375 233.88186938404488 278.65625 C 228.00686938404488 290.09375 219.13186938404488 295.59375 206.25686938404488 295.59375 C 201.75686938404488 295.59375 198.44436938404488 295.15625 188.69436938404488 292.65625 L 175.19436938404488 315.28125 C 184.94436938404488 317.28125 187.44436938404488 317.59375 191.38186938404488 317.59375 C 206.81936938404488 317.59375 218.06936938404488 312.28125 240.63186938404488 294.34375 C 261.0068693840449 278.15625 263.5068693840449 274.03125 270.6943693840449 244.90625 L 292.1318693840449 158.96875 L 306.3818693840449 146.40625 C 279.7568693840449 146.40625 272.7568693840449 146.90625 262.8818693840449 148.84375 C 235.69436938404488 154.28125 217.88186938404488 174.15625 217.88186938404488 199.21875 C 217.88186938404488 204.28125 218.44436938404488 207.34375 221.25686938404488 217.84375 L 245.75686938404488 206.59375 L 245.75686938404488 206.59375 z"
      stroke="rgb(0.0%,0.0%,0.0%)" stroke-opacity="1.0"
      fill="rgb(100.0%,0.0%,0.0%)" fill-opacity="1.0"
      fill-rule="evenodd"
      stroke-width="3.0"
      stroke-linecap="square"
      stroke-linejoin="miter"
      stroke-miterlimit="10.0"
      stroke-dasharray="none"
      marker-start="none"
      marker-mid="none"
      marker-end="none"
   >
   <title>J
</title>
   </path>
   <path  d="M 199.53541269113157 348.4347933070866 L 238.66041269113157 348.4347933070866 C 277.53541269113157 348.4347933070866 287.78541269113157 347.6847933070866 300.72291269113157 343.0597933070866 C 320.09791269113157 336.5597933070866 340.28541269113157 323.7472933070866 349.84791269113157 311.8722933070866 C 362.28541269113157 296.4972933070866 371.22291269113157 270.5597933070866 371.22291269113157 249.87229330708658 C 371.22291269113157 232.49729330708658 361.47291269113157 218.37229330708658 344.47291269113157 210.87229330708658 C 333.91041269113157 206.18479330708658 321.16041269113157 204.18479330708658 302.53541269113157 203.05979330708658 L 304.84791269113157 193.62229330708658 L 281.53541269113157 203.37229330708658 C 262.28541269113157 206.68479330708658 249.34791269113157 211.18479330708658 236.47291269113157 219.37229330708658 C 215.72291269113157 232.87229330708658 205.03541269113157 250.24729330708658 205.03541269113157 271.5597933070866 C 205.03541269113157 276.2472933070866 205.34791269113157 279.4347933070866 207.78541269113157 289.9972933070866 L 234.03541269113157 278.1847933070866 C 231.91041269113157 269.3097933070866 231.72291269113157 267.1222933070866 231.72291269113157 262.8722933070866 C 231.72291269113157 236.30979330708658 247.16041269113157 221.80979330708658 273.66041269113157 219.12229330708658 L 257.28541269113157 284.3722933070866 C 248.28541269113157 322.9972933070866 243.72291269113157 328.4347933070866 218.41041269113157 330.3097933070866 L 199.53541269113157 348.4347933070866 Z M 298.84791269113157 217.55979330708658 C 313.09791269113157 218.18479330708658 320.09791269113157 219.43479330708658 326.91041269113157 222.93479330708658 C 337.41041269113157 228.55979330708658 343.28541269113157 239.74729330708658 343.28541269113157 254.62229330708658 C 343.28541269113157 274.5597933070866 335.91041269113157 298.3722933070866 325.72291269113157 311.3722933070866 C 314.72291269113157 325.3722933070866 302.34791269113157 330.4347933070866 278.78541269113157 330.4347933070866 L 275.34791269113157 330.4347933070866 L 254.09791269113157 329.7472933070866 C 275.72291269113157 309.6222933070866 275.72291269113157 309.6222933070866 286.59791269113157 265.8722933070866 L 298.84791269113157 217.55979330708658 Z M 298.84791269113157 217.55979330708658 "
      stroke="rgb(0.0%,0.0%,0.0%)" stroke-opacity="1.0"
      fill="rgb(0.0%,100.0%,0.0%)" fill-opacity="1.0"
      fill-rule="evenodd"
      stroke-width="3.0"
      stroke-linecap="square"
      stroke-linejoin="miter"
      stroke-miterlimit="10.0"
      stroke-dasharray="none"
      marker-start="none"
      marker-mid="none"
      marker-end="none"
   >
   <title>D
</title>
   </path>
   <path  d="M 262.93895599821815 393.65083661417316 C 283.50145599821815 394.08833661417316 283.50145599821815 394.08833661417316 284.93895599821815 394.08833661417316 C 297.31395599821815 394.08833661417316 318.62645599821815 393.58833661417316 326.56395599821815 393.08833661417316 L 357.18895599821815 377.27583661417316 C 337.87645599821815 376.58833661417316 332.93895599821815 376.58833661417316 332.93895599821815 376.58833661417316 L 319.31395599821815 376.33833661417316 L 319.31395599821815 376.83833661417316 C 341.37645599821815 355.46333661417316 343.37645599821815 352.46333661417316 350.37645599821815 324.46333661417316 C 349.06395599821815 324.46333661417316 348.56395599821815 323.83833661417316 349.75145599821815 329.58833661417316 C 360.00145599821815 372.27583661417316 366.81395599821815 392.08833661417316 376.75145599821815 406.83833661417316 C 387.43895599821815 422.71333661417316 402.93895599821815 430.90083661417316 422.56395599821815 430.90083661417316 C 436.37645599821815 430.90083661417316 445.56395599821815 427.71333661417316 462.31395599821815 415.40083661417316 L 444.87645599821815 393.71333661417316 C 435.00145599821815 411.83833661417316 429.93895599821815 415.96333661417316 422.06395599821815 415.96333661417316 C 412.43895599821815 415.96333661417316 403.81395599821815 406.08833661417316 394.06395599821815 383.08833661417316 C 388.00145599821815 368.33833661417316 381.68895599821815 349.83833661417316 372.18895599821815 319.58833661417316 C 382.37645599821815 316.40083661417316 388.25145599821815 313.58833661417316 395.81395599821815 308.52583661417316 C 407.56395599821815 300.77583661417316 414.87645599821815 288.27583661417316 414.87645599821815 276.15083661417316 C 414.87645599821815 259.40083661417316 400.81395599821815 249.58833661417316 377.93895599821815 249.58833661417316 C 375.06395599821815 249.58833661417316 369.00145599821815 249.83833661417316 369.00145599821815 249.83833661417316 L 371.56395599821815 239.58833661417316 L 343.56395599821815 252.77583661417316 C 304.31395599821815 259.27583661417316 281.75145599821815 279.21333661417316 281.75145599821815 308.52583661417316 C 281.75145599821815 314.96333661417316 282.50145599821815 319.52583661417316 286.50145599821815 332.71333661417316 L 312.87645599821815 319.15083661417316 C 310.06395599821815 308.46333661417316 309.62645599821815 305.21333661417316 309.62645599821815 299.77583661417316 C 309.62645599821815 289.15083661417316 312.62645599821815 281.58833661417316 319.31395599821815 275.40083661417316 C 325.37645599821815 269.90083661417316 330.93895599821815 267.77583661417316 340.25145599821815 266.58833661417316 L 338.06395599821815 275.52583661417316 C 333.06395599821815 295.08833661417316 328.37645599821815 313.27583661417316 323.62645599821815 333.15083661417316 C 314.00145599821815 371.96333661417316 309.43895599821815 376.33833661417316 278.62645599821815 376.08833661417316 L 262.93895599821815 393.65083661417316 Z M 365.50145599821815 264.02583661417316 L 370.12645599821815 264.02583661417316 C 383.18895599821815 264.02583661417316 387.00145599821815 267.46333661417316 387.00145599821815 278.77583661417316 C 387.00145599821815 289.83833661417316 381.56395599821815 299.27583661417316 372.43895599821815 304.90083661417316 C 365.81395599821815 308.90083661417316 360.87645599821815 310.33833661417316 353.81395599821815 311.08833661417316 L 365.50145599821815 264.02583661417316 Z M 365.50145599821815 264.02583661417316 "
      stroke="rgb(0.0%,0.0%,0.0%)" stroke-opacity="1.0"
      fill="rgb(0.0%,0.0%,100.0%)" fill-opacity="1.0"
      fill-rule="evenodd"
      stroke-width="3.0"
      stroke-linecap="square"
      stroke-linejoin="miter"
      stroke-miterlimit="10.0"
      stroke-dasharray="none"
      marker-start="none"
      marker-mid="none"
      marker-end="none"
   >
   <title>R
</title>
   </path>
</svg>
